<svg width="37" height="14" viewBox="0 0 37 14" fill="none" xmlns="http://www.w3.org/2000/svg">
<path d="M6.732 6.268C8.052 6.448 8.994 6.832 9.558 7.42C10.122 7.996 10.404 8.692 10.404 9.508C10.404 10.192 10.23 10.798 9.882 11.326C9.534 11.854 9.036 12.268 8.388 12.568C7.74 12.856 6.972 13 6.084 13C5.76 13 5.484 12.994 5.256 12.982C4.488 12.958 3.732 12.946 2.988 12.946C2.004 12.946 1.26 12.964 0.756 13V12.64C1.188 12.616 1.5 12.568 1.692 12.496C1.896 12.424 2.034 12.286 2.106 12.082C2.178 11.878 2.214 11.548 2.214 11.092V2.164C2.214 1.708 2.178 1.378 2.106 1.174C2.034 0.97 1.896 0.832 1.692 0.76C1.5 0.687999 1.188 0.639999 0.756 0.616V0.256C1.26 0.291999 1.992 0.309999 2.952 0.309999L4.896 0.291999C5.124 0.28 5.382 0.274 5.67 0.274C6.894 0.274 7.83 0.532 8.478 1.048C9.138 1.564 9.468 2.248 9.468 3.1C9.468 3.796 9.246 4.42 8.802 4.972C8.37 5.524 7.68 5.944 6.732 6.232V6.268ZM5.22 0.616C4.848 0.616 4.566 0.657999 4.374 0.741999C4.194 0.825999 4.068 0.976 3.996 1.192C3.924 1.408 3.888 1.732 3.888 2.164V6.232H5.094C6.078 6.232 6.762 5.968 7.146 5.44C7.542 4.9 7.74 4.186 7.74 3.298C7.74 2.398 7.542 1.726 7.146 1.282C6.75 0.838 6.108 0.616 5.22 0.616ZM5.238 12.586C7.482 12.586 8.604 11.536 8.604 9.436C8.604 8.488 8.346 7.768 7.83 7.276C7.326 6.784 6.516 6.538 5.4 6.538H3.888V11.092C3.888 11.524 3.924 11.842 3.996 12.046C4.068 12.25 4.194 12.394 4.374 12.478C4.566 12.55 4.854 12.586 5.238 12.586ZM23.2928 0.00399888C24.0488 0.00399888 24.6728 0.225999 25.1648 0.669999C25.6688 1.102 25.9208 1.69 25.9208 2.434C25.9208 3.01 25.7648 3.514 25.4528 3.946C25.1408 4.366 24.7268 4.702 24.2108 4.954C23.7548 5.17 22.8668 5.482 21.5468 5.89C22.2188 6.178 22.7108 6.592 23.0228 7.132C23.3468 7.66 23.5088 8.266 23.5088 8.95C23.5088 9.694 23.2868 10.396 22.8428 11.056C22.3988 11.716 21.7628 12.25 20.9348 12.658C20.1068 13.054 19.1348 13.252 18.0188 13.252C16.9748 13.252 16.0028 13.072 15.1028 12.712C14.2148 12.34 13.5068 11.818 12.9788 11.146C12.4508 10.462 12.1868 9.67 12.1868 8.77C12.1868 7.978 12.3788 7.312 12.7628 6.772C13.1588 6.22 13.6088 5.806 14.1128 5.53C14.6168 5.242 15.0848 5.044 15.5168 4.936C14.9288 4.684 14.4788 4.348 14.1668 3.928C13.8548 3.508 13.6988 3.07 13.6988 2.614C13.6988 2.218 13.8128 1.852 14.0408 1.516C14.2808 1.168 14.6288 0.891999 15.0848 0.688C15.5528 0.472 16.1048 0.364 16.7408 0.364C17.5448 0.364 18.1688 0.543999 18.6128 0.903999C18.8288 1.084 18.9908 1.288 19.0988 1.516C19.2188 1.732 19.2788 1.942 19.2788 2.146C19.2788 2.434 19.1768 2.668 18.9728 2.848C18.7688 3.016 18.5348 3.1 18.2708 3.1C18.0188 3.1 17.7968 3.022 17.6048 2.866C17.4248 2.698 17.3348 2.476 17.3348 2.2C17.3348 1.936 17.4248 1.714 17.6048 1.534C17.7848 1.342 18.0128 1.234 18.2888 1.21C18.2288 1.054 18.0728 0.921999 17.8208 0.813999C17.5808 0.693999 17.2808 0.633999 16.9208 0.633999C16.2968 0.633999 15.7928 0.825999 15.4088 1.21C15.0248 1.582 14.8328 2.104 14.8328 2.776C14.8328 3.58 15.1388 4.264 15.7508 4.828C16.1708 4.756 16.5428 4.72 16.8668 4.72C17.0828 4.72 17.2568 4.756 17.3888 4.828C17.5208 4.9 17.5868 5.002 17.5868 5.134C17.5868 5.242 17.5388 5.326 17.4428 5.386C17.3588 5.446 17.2388 5.476 17.0828 5.476C16.8908 5.476 16.6928 5.44 16.4888 5.368C16.2848 5.296 16.0448 5.2 15.7688 5.08C14.2088 5.548 13.4288 6.532 13.4288 8.032C13.4288 8.836 13.6388 9.532 14.0588 10.12C14.4788 10.708 15.0548 11.158 15.7868 11.47C16.5188 11.77 17.3408 11.92 18.2528 11.92C19.1048 11.92 19.8908 11.788 20.6108 11.524C21.3428 11.248 21.9188 10.864 22.3388 10.372C22.7708 9.868 22.9868 9.286 22.9868 8.626C22.9868 8.146 22.8608 7.66 22.6088 7.168C22.3568 6.676 21.8768 6.292 21.1688 6.016C20.2328 6.304 19.5428 6.532 19.0988 6.7C18.5948 6.892 18.2048 7.114 17.9288 7.366C17.6528 7.606 17.5148 7.906 17.5148 8.266C17.5148 8.698 17.6888 9.046 18.0368 9.31C18.3968 9.574 18.7748 9.706 19.1708 9.706C19.3748 9.706 19.5968 9.67 19.8368 9.598C20.0768 9.526 20.2148 9.43 20.2508 9.31C20.0228 9.262 19.8248 9.166 19.6568 9.022C19.4888 8.878 19.4048 8.668 19.4048 8.392C19.4048 8.104 19.4948 7.876 19.6748 7.708C19.8668 7.54 20.1068 7.456 20.3948 7.456C20.6828 7.456 20.9108 7.546 21.0788 7.726C21.2588 7.906 21.3488 8.14 21.3488 8.428C21.3488 8.908 21.1268 9.286 20.6828 9.562C20.2388 9.838 19.7468 9.976 19.2068 9.976C18.6188 9.976 18.0968 9.802 17.6408 9.454C17.1968 9.094 16.9748 8.566 16.9748 7.87C16.9748 7.258 17.1788 6.742 17.5868 6.322C18.0068 5.89 18.6308 5.53 19.4588 5.242L20.7368 4.864C21.4568 4.66 22.0568 4.48 22.5368 4.324C23.0168 4.168 23.4548 4 23.8508 3.82C24.4268 3.556 24.8288 3.286 25.0568 3.01C25.2848 2.734 25.3988 2.428 25.3988 2.092C25.3988 1.588 25.1888 1.162 24.7688 0.813999C24.3608 0.454 23.8748 0.274 23.3108 0.274C23.0108 0.274 22.8308 0.328 22.7708 0.436C22.9268 0.508 23.0468 0.627999 23.1308 0.795999C23.2268 0.952 23.2748 1.108 23.2748 1.264C23.2748 1.516 23.1728 1.726 22.9688 1.894C22.7768 2.062 22.5428 2.146 22.2668 2.146C22.0148 2.146 21.7928 2.068 21.6008 1.912C21.4088 1.756 21.3128 1.534 21.3128 1.246C21.3128 0.814 21.5108 0.502 21.9068 0.309999C22.3148 0.105999 22.7768 0.00399888 23.2928 0.00399888ZM33.0113 6.268C34.3313 6.448 35.2733 6.832 35.8373 7.42C36.4013 7.996 36.6833 8.692 36.6833 9.508C36.6833 10.192 36.5093 10.798 36.1613 11.326C35.8133 11.854 35.3153 12.268 34.6673 12.568C34.0193 12.856 33.2513 13 32.3633 13C32.0393 13 31.7633 12.994 31.5353 12.982C30.7673 12.958 30.0113 12.946 29.2673 12.946C28.2833 12.946 27.5393 12.964 27.0353 13V12.64C27.4673 12.616 27.7793 12.568 27.9713 12.496C28.1753 12.424 28.3133 12.286 28.3853 12.082C28.4573 11.878 28.4933 11.548 28.4933 11.092V2.164C28.4933 1.708 28.4573 1.378 28.3853 1.174C28.3133 0.97 28.1753 0.832 27.9713 0.76C27.7793 0.687999 27.4673 0.639999 27.0353 0.616V0.256C27.5393 0.291999 28.2713 0.309999 29.2313 0.309999L31.1753 0.291999C31.4033 0.28 31.6613 0.274 31.9493 0.274C33.1733 0.274 34.1093 0.532 34.7573 1.048C35.4173 1.564 35.7473 2.248 35.7473 3.1C35.7473 3.796 35.5253 4.42 35.0813 4.972C34.6493 5.524 33.9593 5.944 33.0113 6.232V6.268ZM31.4993 0.616C31.1273 0.616 30.8453 0.657999 30.6533 0.741999C30.4733 0.825999 30.3473 0.976 30.2753 1.192C30.2033 1.408 30.1673 1.732 30.1673 2.164V6.232H31.3733C32.3573 6.232 33.0413 5.968 33.4253 5.44C33.8213 4.9 34.0193 4.186 34.0193 3.298C34.0193 2.398 33.8213 1.726 33.4253 1.282C33.0293 0.838 32.3873 0.616 31.4993 0.616ZM31.5173 12.586C33.7613 12.586 34.8833 11.536 34.8833 9.436C34.8833 8.488 34.6253 7.768 34.1093 7.276C33.6053 6.784 32.7953 6.538 31.6793 6.538H30.1673V11.092C30.1673 11.524 30.2033 11.842 30.2753 12.046C30.3473 12.25 30.4733 12.394 30.6533 12.478C30.8453 12.55 31.1333 12.586 31.5173 12.586Z" fill="white"/>
</svg>
